<?xml version="1.0" encoding="UTF-8"?>
<svg id="Layer_1" xmlns="http://www.w3.org/2000/svg" version="1.1" viewBox="0 0 4300 1000">
  <!-- Generator: Adobe Illustrator 29.6.1, SVG Export Plug-In . SVG Version: 2.1.1 Build 9)  -->
  <g>
    <path d="M878.5,759.7L325.3,18.5h-149.7v9.6c31.1,2.4,65.9,0,142.5,95.8l51.5,68.3v376c0,215.6-1.2,282.6-166.5,282.6v10.8h328.1v-10.8c-149.7,0-150.9-70.7-150.9-282.6V206.5l495.8,655h13.2v-319.6c-3.5-2.5-7.1-4.9-10.8-7.4v225.2h0Z"/>
    <path d="M728.9,18.5v9.6c73.8,0,111.2,14.6,130.2,56,1.4,3.1,2.7,6.3,3.9,9.7,2.5,6.8,4.5,14.3,6.2,22.4.7,3.1,1.3,6.4,1.9,9.7,7.5,43,7.5,102.9,7.5,184.9v63.3c3.6,2.3,7.2,4.6,10.8,6.9v-70.2c0-78.8-.6-137.2,6-179.8.5-3.2,1-6.3,1.6-9.3,1.5-7.7,3.2-14.9,5.3-21.5,1-3.1,2-6.1,3.2-8.9,18.6-46.8,58.5-63,144.4-63v-9.6h-320.9Z"/>
  </g>
  <g>
    <path d="M1047.1,253.8v1c16.6,29.3,20.5,52.7,21.5,77.1v-152.4l-12.7,44c-28.6-64.4-82.8-104.1-144.7-121.1,0,.1,0,.3-.1.4-2,6.2-3.7,13.1-5.1,20.5,0,.3,0,.6-.2.9,54,16.9,105.5,56.6,141.3,129.6h0Z"/>
    <path d="M889.3,392c-3.6-2.3-7.2-4.7-10.8-6.9-95-60.5-184.1-106-184.1-168.4s59.6-102.5,147.5-102.5c5.8,0,11.6.4,17.4.9-1.5-6.7-3.2-12.7-5.2-18.2-.5-1.4-1-2.6-1.5-3.9-3.9-.2-7.8-.3-11.7-.4-68.4,0-135.8,29.3-169,87.9-21.5,39.1-31.3,72.3-31.3,101.6,0,94.8,95.7,150.4,191.5,211,16.1,10.2,31.6,20.2,46.3,30.1,3.6,2.5,7.2,4.9,10.8,7.3,81.8,56.7,136.8,113.8,139.3,215.6,0,137.7-109.4,212-229.6,212.9-133.8,0-276.4-90.8-287.2-258.8,4.9,188.5,150.4,280.3,296,281.3,141.7,0,283.3-92.8,295-257.9l1-23.4c0-151.7-109-240-214.5-308.2h0Z"/>
  </g>
  <path d="M1651.8,226.3l-2,1.9c-12.6.7-19.8,1.4-21.7,1.9-3.6,1-5.7,3.3-6.3,6.9-1.6,8.9-2.4,28.1-2.4,57.5v75.3c0,55.5.8,91.7,2.4,108.5l-2.4,1.7c-14-2.4-24.6-4-31.7-5-33.2-37.2-89.7-105.1-169.8-203.7v121.3c0,29.4.8,48.6,2.4,57.5.6,3.6,2.7,5.9,6.3,6.9,1.9.5,9.1,1.1,21.7,1.9l1.9,1.9v12.6l-1.9,1.7c-14.2-.7-27.5-1.1-39.7-1.1s-28.5.4-42.9,1.1l-1.9-1.7v-12.6l1.9-1.9c12.6-.7,19.8-1.4,21.7-1.9,3.6-1,5.7-3.3,6.3-6.9,1.6-8.9,2.4-28.1,2.4-57.5v-98.1c0-29.4-.8-48.6-2.4-57.5-.6-3.6-2.7-5.9-6.3-6.9-1.9-.5-9.1-1.1-21.7-1.9l-1.9-1.9v-12.6l1.9-1.7c11.8.7,22.9,1.1,33.6,1.1,16.7,0,30.6-.4,41.6-1.1,44.5,59.4,96.8,123,157,190.9v-108.5c0-29.4-.8-48.6-2.4-57.5-.6-3.6-2.7-5.9-6.3-6.9-1.9-.5-9.1-1.1-21.7-1.9l-1.9-1.9v-12.6l1.9-1.7c13.8.7,27,1.1,39.5,1.1s30.3-.4,43.1-1.1l1.9,1.7v12.6h0Z"/>
  <path d="M1950.6,473.1l-1.7,1.9c-27.5-.7-44-1.1-49.7-1.1-22.8,0-43.9.4-63.5,1.1l-1.7-1.9v-11.7l1.9-2,16.1-.9c6.8-.4,10.2-2.8,10.2-7.2s-1.7-8.4-5.2-17.4l-15-39.1c-17.1-.2-34.5-.4-52.3-.4s-24,.1-43.1.4l-8.2,22.6c-6.2,17.2-9.3,28-9.3,32.3s2.9,7.5,8.7,8.4c3.2.5,9.5,1,18.9,1.5l1.9,1.9v11.9l-1.9,1.9c-22.9-.7-37.6-1.1-44.2-1.1s-17.6.4-37.7,1.1l-1.9-1.7v-12.1l2-1.9c12.7-.7,20.6-3.3,23.5-7.6,2.9-4.3,13.8-30.1,32.8-77.4l48.4-121.2c3.6-9.4,9-23.6,16.3-42.5h26.3l98.3,231.4c3.8,8.8,7.3,13.7,10.4,14.8,4.1,1.5,10,2.2,17.6,2.2l1.7,2v11.9h0ZM1832.9,373.2l-39.7-97.2-38,97.2c10.1.4,23.3.6,39.5.6s28.4-.2,38.2-.6h0Z"/>
  <path d="M2175.8,411.8c-2.7,18.1-4.1,38.5-4.1,61.2l-1.9,1.9-134.9-1.1c-22.5,0-38.4.4-47.7,1.1l-1.9-1.9v-5.2l.9-2.2c9.2-5.8,14.1-9.5,14.8-11,1.1-2.2,1.8-10.5,2-24.7l.6-41.6v-94.1c0-29.4-.8-48.6-2.4-57.5-.6-3.6-2.7-5.9-6.3-6.9-1.9-.5-9.1-1.1-21.7-1.9l-1.9-1.9v-12.6l1.9-1.7c12.7.7,31.4,1.1,56,1.1s44.8-.4,58.1-1.1l1.9,1.7v12.8l-1.9,1.7c-12.6.7-19.9,1.4-21.7,1.9-3.6,1-5.7,3.3-6.3,6.9-1.6,8.9-2.4,28.1-2.4,57.5v110.9c0,16.2.3,31.9.9,47.1h25.2c36.1,0,58.3-1.4,66.4-4.3,1.4-.5,2.4-1.2,3-2,1.2-1.7,2.4-5.4,3.5-11.1l4.4-23,1.9-2h11.3l2,1.9h0Z"/>
  <path d="M2476.4,473.1l-1.7,1.9c-27.5-.7-44-1.1-49.7-1.1-22.8,0-43.9.4-63.5,1.1l-1.7-1.9v-11.7l1.9-2,16.1-.9c6.8-.4,10.2-2.8,10.2-7.2s-1.7-8.4-5.2-17.4l-15-39.1c-17.1-.2-34.5-.4-52.3-.4s-24,.1-43.1.4l-8.2,22.6c-6.2,17.2-9.3,28-9.3,32.3s2.9,7.5,8.7,8.4c3.2.5,9.5,1,18.9,1.5l1.9,1.9v11.9l-1.9,1.9c-22.9-.7-37.6-1.1-44.2-1.1s-17.6.4-37.7,1.1l-1.9-1.7v-12.1l2-1.9c12.7-.7,20.6-3.3,23.5-7.6s13.8-30.1,32.8-77.4l48.4-121.2c3.6-9.4,9-23.6,16.3-42.5h26.4l98.3,231.4c3.8,8.8,7.3,13.7,10.4,14.8,4.1,1.5,10,2.2,17.6,2.2l1.7,2v11.9h0ZM2358.8,373.2l-39.7-97.2-38,97.2c10.1.4,23.3.6,39.5.6s28.4-.2,38.2-.6h0Z"/>
  <path d="M2792.7,388.1c0,20.4-5.8,38.4-17.4,54-10.1,13.7-23.4,23.9-39.9,30.6-15.1,6.2-33.1,9.3-54,9.3s-51.5-5.9-76.4-17.8l-2.2-4.1c3.5-14.2,5.2-34.5,5.2-60.7l1.9-1.9h11.9l1.7,1.9v4.3c0,6.9.7,16.1,2.2,27.5,4.4,7.9,12.4,14.7,23.9,20.4,12,5.9,24.5,8.9,37.5,8.9,24.5,0,41.4-8.5,50.8-25.6,4.8-8.8,7.2-17.9,7.2-27.3,0-15.8-6.6-27.1-19.9-34-6.6-3.3-17.1-6.1-31.7-8.4-33-5.1-54.7-11.4-65.1-19.1-15.7-11.6-23.6-29.6-23.6-54s8.5-45.6,25.6-60.7c18.1-15.8,43.2-23.8,75.3-23.8s52.3,4.6,70.1,13.9l1.3,4.4c-3,14.7-4.8,32.4-5.4,53.1l-2,1.9h-11.7l-1.9-1.9c-.4-14.8-1-24.5-1.9-28.9-3.8-5.8-10.5-10.8-20-14.8-10.1-4.2-20.7-6.3-31.7-6.3-16.6,0-29.7,4.4-39.3,13.2-9,8.3-13.5,19-13.5,32.1s5.1,24.7,15.4,31.4c6.7,4.3,22.4,8.5,47.3,12.4,2.6.4,9.8,1.6,21.7,3.7,7.3,1.2,14,3,20.2,5.4,12.5,4.7,21.9,11.9,28.2,21.5,6.8,10.5,10.2,23.6,10.2,39.3h0Z"/>
  <path d="M3058.4,213.1c-1.5,9.2-2.3,18.6-2.4,28.4l-.4,31-1.9,1.9h-11.7l-2-1.7c-.6-15.8-1.3-25.1-2-27.8-1.5-4.9-5.4-7.9-11.9-8.7-2.5-.4-14.1-.6-34.9-.6h-24.9c-.2,4.3-.4,21.5-.4,51.6v105.4c0,29.4.8,48.6,2.4,57.5.6,3.6,2.7,5.9,6.3,6.9,1.9.5,9.1,1.1,21.7,1.9l1.9,1.9v12.4l-1.9,1.9c-12.2-.7-31.3-1.1-57.1-1.1s-45.5.4-57.1,1.1l-1.7-1.7v-12.6l1.9-1.9c12.6-.7,19.9-1.4,21.7-1.9,3.6-1,5.7-3.3,6.3-6.9,1.6-8.9,2.4-28.1,2.4-57.5v-105.4c0-30.5-.2-47.8-.6-51.6h-26.5c-22.1,0-35.1.7-38.8,2-2,.7-3.3,1.7-4.1,2.8-1.1,2-2,5.9-2.8,11.9-.9,6.6-1.4,13.3-1.7,20.2l-1.9,1.9h-11.7l-2-1.9-.4-31.7c-.1-8.9-.9-18.1-2.2-27.6l1.7-1.9c7.3,1.2,33.9,1.9,79.8,1.9h75.1c42.3,0,68.9-.6,79.8-1.9l1.9,1.9h0Z"/>
  <path d="M3351.8,226.3l-1.9,1.9c-14.6,0-22.8,3.9-24.7,11.7-1,4.3-1.7,13.7-2.2,28.2-.4,10.8-.6,26.3-.6,46.6v57.1c0,36.7-7.2,63-21.7,78.7-19.2,20.8-46.5,31.2-82,31.2s-57.7-5.4-75.9-16.1c-15.3-9.1-25.4-22.1-30.1-39-3-10.8-4.4-38.8-4.4-84.2v-47.9c0-29.4-.8-48.6-2.4-57.5-.6-3.6-2.7-5.9-6.3-6.9-1.9-.5-9.1-1.1-21.7-1.9l-1.9-1.9v-12.4l1.9-1.9c11.9.7,30.9,1.1,57.1,1.1s45.7-.4,57-1.1l1.9,1.9v12.4l-1.9,1.9c-12.6.7-19.9,1.4-21.7,1.9-3.6,1-5.7,3.3-6.3,6.9-1.6,8.9-2.4,28.1-2.4,57.5v38.2c0,46.8,2.1,75.4,6.3,85.9,8.4,20.8,29.1,31.2,62.2,31.2s38.5-5.3,50.6-16c5.7-5.1,9.6-10.2,11.9-15.4,2.2-5.2,4-13.2,5.2-24.1,1.1-10.1,1.7-20.4,1.7-30.8v-38.6c0-32.4-.1-54.5-.4-66.4-.2-11.1-1-18.4-2.2-21.7-1-2.5-3.1-4.4-6.5-5.8-2.9-1.1-10.4-2-22.8-2.8l-1.9-1.9v-12.4l1.9-1.9c10.8.7,21.8,1.1,33.2,1.1s24.9-.4,49.2-1.1l1.9,1.9v12.4h0Z"/>
  <path d="M3660,328c0,41.9-13.7,76.7-41,104.3-13.4,13.5-29.6,23.9-48.6,31.4-20.4,8-44.2,11.8-71.4,11.3l-65.5-1.1c-17.8-.2-32.5.1-44.2,1.1l-1.9-1.9v-5.2l.9-2.2c9.1-5.8,14.1-9.5,14.8-11,1.1-2.2,1.8-10.5,2-24.7l.6-41.6v-94.1c0-29.4-.8-48.6-2.4-57.5-.6-3.6-2.7-5.9-6.3-6.9-1.9-.5-9.1-1.1-21.7-1.9l-1.9-1.9v-12.6l1.9-1.7c13.1.7,25.6,1.1,37.5,1.1,28.8,0,54.8-.4,77.9-1.1,11.5-.4,23.1-.6,34.7-.6,32.2,0,56.8,3.6,74,10.9,18.8,8,33.5,20.7,44.2,37.8,10.9,17.7,16.3,40.3,16.3,67.7h0ZM3603,336.9c0-34.3-8.3-60.6-24.9-79-8.7-9.6-19.5-16.4-32.5-20.4-12.4-3.7-29.6-5.6-51.8-5.6s-22.5.8-33,2.4c-1.2,13.9-1.9,47.4-1.9,100.6l.4,81.1c.1,18.1.6,30.1,1.5,36,10.9,1.7,22,2.6,33.4,2.6,24.6,0,44-3.6,58.3-10.8,15.3-7.8,27.5-21,36.6-39.7,9.3-19.3,13.9-41.7,13.9-67.2h0Z"/>
  <path d="M3810.2,473.1l-1.7,1.9c-12.4-.7-31.5-1.1-57.3-1.1s-44.8.4-57.1,1.1l-1.7-1.9v-12.4l1.9-1.9c12.6-.7,19.9-1.4,21.7-1.9,3.6-1,5.7-3.3,6.3-6.9,1.6-8.9,2.4-28.1,2.4-57.5v-98.1c0-29.4-.8-48.6-2.4-57.5-.6-3.6-2.7-5.9-6.3-6.9-1.9-.5-9.1-1.1-21.7-1.9l-1.9-1.9v-12.6l1.9-1.7c11.9.7,30.9,1.1,57.1,1.1s45.1-.4,57-1.1l1.9,1.7v12.6l-1.9,1.9c-12.6.7-19.9,1.4-21.7,1.9-3.6,1-5.7,3.3-6.3,6.9-1.6,8.9-2.4,28.1-2.4,57.5v98.1c0,29.4.8,48.6,2.4,57.5.6,3.6,2.7,5.9,6.3,6.9,1.9.5,9.1,1.1,21.7,1.9l1.9,1.9v12.4h0Z"/>
  <path d="M4124.4,336.7c0,45.6-13.3,81.5-39.9,107.4-25.9,25.2-61.2,37.9-105.9,37.9s-75.5-11.9-99.6-35.7c-24.1-23.8-36.2-56.9-36.2-99.4s22.7-100.7,68.1-123.6c20.7-10.4,46.1-15.6,76.3-15.6,43.2,0,76.8,11.3,100.8,33.9,24.4,23,36.6,54.7,36.6,95h0ZM4067.2,346.3c0-35.9-7.2-64.4-21.6-85.4-14.4-21.1-35.5-31.6-63.4-31.6s-61.1,16.5-73.1,49.5c-6.2,17-9.3,35.9-9.3,57,0,38.2,7.1,68.4,21.1,90.5,14.6,22.9,36.4,34.3,65.5,34.3s58.9-17.4,71.1-52.1c6.4-18.4,9.6-39.1,9.6-62.2h0Z"/>
  <g>
    <path d="M1847.4,744l-.9,1c-6.6-.4-12.1-.6-16.7-.6s-10.3.2-18.3.6l-.9-.9c1.1-13.1,1.6-23.2,1.6-30.3v-17.3c0-14.3-5.2-21.5-15.8-21.5s-9.8,1.8-12.9,5.5c-2.6,3.1-3.9,6.3-3.9,9.4v16.5c0,15.2.4,24.6,1.2,28,.5,2.1,3.9,3.1,10.4,3.3l.9.9v5.4l-.9.9c-5.1-.3-12.7-.5-22.7-.5s-18.8.2-24.4.6l-.9-.9v-5.4l.9-.9c5.7-.2,9.3-.6,10.7-1.3,1.2-.5,1.8-1.9,2-4.2.4-7.6.6-15.8.6-24.6v-12.6c0-11.8-.4-18.5-1.3-20.3-.6-1.2-1.9-1.9-3.8-2.2-.7-.1-3.3-.3-7.8-.4l-.9-.9v-4.9l.9-1c10.7-1,22.1-3.4,33.9-7.3l2,1.2-.2,14.8,15.4-12.7c3.9-1.6,8.3-2.4,13-2.4,9.5,0,16.6,2.8,21.3,8.5,3.8,4.6,5.7,11.3,5.7,20.2s-.1,5.1-.4,12.2-.4,12.3-.4,15.3c0,8.9.2,14.5.4,17,.3,2.4,1,4,2.1,4.6,1.1.7,4.2,1,9.3,1.2l.8.9v5.2h0Z"/>
    <path d="M1938.7,743.8l-1,1c-5-.3-10.8-.4-17.3-.4s-9.9.2-14.6.4l-.8-1,.8-11.8-17.4,13c-1.4,1-3.3,1.6-5.9,1.8-1,.1-2.2.2-3.6.2-6.6,0-11.7-2-15.3-5.9s-5.3-9.4-5.3-16.3,2.9-15.7,8.9-19.5c6.4-4.2,19.2-7.9,38.6-11.3,0-9.3-2.5-15.6-7.5-18.8-3-1.9-6.7-2.9-10.9-2.9s-8.3.9-11,2.8l-3.4,8.2-1.2.6-4.6-1.1-.6-1.2.4-10.4c9.8-7.2,17.2-11.2,22.2-12.2,2.1-.4,4.8-.6,8.2-.6,11.8,0,20.1,3,25.2,9.1,3.6,4.4,5.5,11.2,5.5,20.3s0,5.8-.3,10.8c-.3,8.2-.4,13.7-.4,16.5,0,8.9.2,14.5.4,17,.3,2.4,1,4,2.1,4.6s3.8,1,7.9,1.2l.9,1v4.9h0ZM1905.9,723.2v-21.7c-9.8,2.1-16.5,4.4-19.9,6.8s-5.2,6.2-5.2,11.2c0,8,3.6,12,10.7,12s10.8-2.8,14.4-8.3h0Z"/>
    <path d="M1998.9,744l-.9.9c-5.7-.4-13.8-.6-24.5-.6s-18.8.2-24.4.6l-.9-.9v-5.4l.9-.9c5.7-.2,9.3-.6,10.7-1.3,1.2-.5,1.8-1.9,2-4.2.4-7.6.6-15.8.6-24.6v-12.6c0-11.4-.4-18.2-1.3-20.3-.5-1.2-1.8-1.9-3.8-2.2-.7-.1-3.3-.3-7.8-.4l-.9-.9v-4.9l.9-1c11.5-1,23-3.4,34.7-7.3l1.9,1.2c-.8,10.7-1.2,19.7-1.2,27.1v28.1c0,4.3.2,10.3.6,17.9.1,2.3.8,3.7,2,4.2,1.4.7,4.9,1.2,10.7,1.3l1,.9v5.4h0ZM1986.5,629c0,3.8-1.3,7-4,9.7-2.7,2.7-5.9,4-9.7,4s-7.1-1.3-9.8-4c-2.7-2.7-4-5.9-4-9.7s1.4-7.1,4.1-9.8c2.7-2.6,5.9-4,9.7-4s6.9,1.3,9.6,4c2.7,2.6,4.1,5.9,4.1,9.8h0Z"/>
    <path d="M2059.9,744l-.9.9c-5.7-.4-13.8-.6-24.5-.6s-18.8.2-24.4.6l-.9-.9v-5.4l.9-.9c5.7-.2,9.3-.6,10.7-1.3,1.2-.5,1.8-1.9,2-4.2.4-7.6.6-21,.6-40.1v-29.5c0-12.3-.2-22.3-.6-30-.1-2.2-.8-3.6-2-4.3-1.2-.7-4.7-1.1-10.4-1.3l-.9-1v-4.8l.9-1c11.5-1.2,23.1-3.7,34.7-7.3l1.9,1.1c0,1.6,0,4.5-.3,8.7-.6,14-.9,29.6-.9,46.6v22.7c0,19.1.2,32.5.6,40.1.1,2.3.8,3.7,2,4.2,1.4.7,4.9,1.2,10.6,1.3l1,.9v5.4h0Z"/>
    <path d="M2140.2,716.6c0,9.5-3.6,17.1-10.9,22.9s-16.7,8.7-28.4,8.7-17.2-1.8-26.7-5.3l-1-1.3c.5-5.4.9-9.6,1-12.6l.4-11.1.9-1h5.3l1.1,1c.2,6.6.5,10.5.8,11.6,5.1,6.4,11.7,9.6,20,9.6s9.5-1.3,12.6-3.8c3.2-2.5,4.7-5.9,4.7-10.1s-2.4-8.9-7.2-10.7c-2-.8-6.1-1.8-12.1-3-9.9-2.1-16.4-4.4-19.8-7-5.1-4-7.6-9.9-7.6-17.7s3.1-15.4,9.4-20.5c6.6-5.4,15.5-8.1,26.7-8.1s17.5,1.6,23.8,4.8l.8,1.4c-.7,2.7-1.2,9.4-1.5,20.4l-1,.9h-5.1l-1-.9c-.2-4.2-.7-7.7-1.2-10.3-3.8-4.7-9.2-7-16.4-7s-8.5,1.1-11.5,3.3c-3,2.2-4.5,5.2-4.5,8.8s2.5,8.1,7.6,9.8c2.3.7,6.7,1.7,13.2,3,10,1.9,16.6,4.2,19.9,6.7,5,3.9,7.5,9.8,7.5,17.7h0Z"/>
    <path d="M2247.9,676.3c4.5,0,8.8,1.1,12.9,3.3,4.1,2.2,7.4,5.4,9.8,9.4,2.4,4.1,3.6,8.4,3.6,13,0,7-2.5,13.1-7.6,18.2s-11.3,7.6-18.6,7.6-13.5-2.5-18.6-7.6c-5.1-5-7.6-11.1-7.6-18.2s1.2-9,3.6-13c2.4-4,5.6-7.2,9.8-9.4s8.4-3.3,12.9-3.3h0Z"/>
    <path d="M2405.2,744l-.9.9c-5.7-.4-13.9-.6-24.5-.6s-18.8.2-24.4.6l-.9-.9v-5.4l.9-.9c5.7-.2,9.3-.6,10.6-1.3,1.2-.5,1.9-1.9,2-4.2.4-7.6.6-21,.6-40.1v-29.5c0-12.3-.2-22.3-.6-30-.1-2.2-.8-3.6-2-4.3-1.2-.7-4.7-1.1-10.4-1.3l-.9-1v-4.8l.9-1c11.5-1.2,23.1-3.7,34.6-7.3l1.9,1.1c0,1.6,0,4.5-.3,8.7-.6,14-.9,29.6-.9,46.6v22.7c0,19.1.2,32.5.6,40.1.1,2.3.8,3.7,2,4.2,1.4.7,4.9,1.2,10.6,1.3l1,.9v5.4h0Z"/>
    <path d="M2497.7,743.8l-1,1c-5-.3-10.8-.4-17.3-.4s-9.9.2-14.6.4l-.8-1,.8-11.8-17.4,13c-1.4,1-3.3,1.6-5.9,1.8-1,.1-2.2.2-3.6.2-6.6,0-11.7-2-15.3-5.9s-5.3-9.4-5.3-16.3,2.9-15.7,8.9-19.5c6.4-4.2,19.2-7.9,38.6-11.3,0-9.3-2.5-15.6-7.5-18.8-3-1.9-6.7-2.9-10.9-2.9s-8.3.9-11,2.8l-3.4,8.2-1.2.6-4.6-1.1-.6-1.2.4-10.4c9.9-7.2,17.2-11.2,22.2-12.2,2.1-.4,4.8-.6,8.1-.6,11.8,0,20.1,3,25.2,9.1,3.6,4.4,5.5,11.2,5.5,20.3s0,5.8-.3,10.8c-.3,8.2-.4,13.7-.4,16.5,0,8.9.1,14.5.4,17,.3,2.4,1,4,2.1,4.6s3.8,1,7.9,1.2l.9,1v4.9h0ZM2464.9,723.2v-21.7c-9.9,2.1-16.5,4.4-19.9,6.8s-5.1,6.2-5.1,11.2c0,8,3.6,12,10.6,12s10.8-2.8,14.4-8.3h0Z"/>
    <path d="M2577.1,716.6c0,9.5-3.6,17.1-10.9,22.9s-16.7,8.7-28.4,8.7-17.2-1.8-26.7-5.3l-1-1.3c.5-5.4.9-9.6,1-12.6l.4-11.1.9-1h5.3l1.1,1c.2,6.6.5,10.5.8,11.6,5.1,6.4,11.7,9.6,20,9.6s9.5-1.3,12.6-3.8c3.2-2.5,4.7-5.9,4.7-10.1s-2.4-8.9-7.2-10.7c-2-.8-6.1-1.8-12.1-3-9.9-2.1-16.4-4.4-19.8-7-5.1-4-7.6-9.9-7.6-17.7s3.1-15.4,9.4-20.5c6.6-5.4,15.5-8.1,26.7-8.1s17.5,1.6,23.8,4.8l.8,1.4c-.7,2.7-1.2,9.4-1.5,20.4l-1,.9h-5.1l-1-.9c-.2-4.2-.7-7.7-1.2-10.3-3.8-4.7-9.2-7-16.4-7s-8.5,1.1-11.5,3.3c-3,2.2-4.5,5.2-4.5,8.8s2.5,8.1,7.6,9.8c2.3.7,6.7,1.7,13.2,3,10,1.9,16.6,4.2,19.9,6.7,5,3.9,7.5,9.8,7.5,17.7h0Z"/>
    <path d="M2691.5,744l-.9,1c-6.6-.4-12.1-.6-16.6-.6s-10.3.2-18.3.6l-.9-.9c1.1-13.1,1.6-23.2,1.6-30.3v-17.3c0-14.3-5.2-21.5-15.8-21.5s-10,1.9-13.1,5.7c-2.5,3.1-3.8,7-3.8,11.8v10.4c0,11.9.2,21.7.6,29.3.1,2.3.8,3.7,2,4.2,1.4.7,4.9,1.2,10.6,1.3l1,.9v5.4l-.9.9c-5.7-.4-13.9-.6-24.5-.6s-18.8.2-24.4.6l-.9-.9v-5.4l.9-.9c5.7-.2,9.3-.6,10.6-1.3,1.2-.5,1.9-1.9,2-4.2.4-7.6.6-21,.6-40.1v-29.5c0-12.3-.2-22.3-.6-30-.1-2.2-.8-3.6-2-4.3-1.2-.7-4.7-1.1-10.4-1.3l-.9-1v-4.8l.9-1c11.5-1.2,23.1-3.7,34.6-7.3l1.9,1.1c0,1.6,0,4.5-.3,8.7-.6,14-.9,29.6-.9,46.6v4.9l15.8-13c3.9-1.6,8.3-2.4,13-2.4,9.5,0,16.6,2.8,21.3,8.5,3.8,4.6,5.7,11.3,5.7,20.2s-.1,4.6-.4,10.8-.4,11.8-.4,16.8c0,8.9.1,14.5.4,17,.3,2.4,1,4,2.1,4.6,1.1.7,4.2,1,9.3,1.2l.8.9v5.2h0Z"/>
    <path d="M2780.6,694.9c0,1,0,2.5,0,4.5l-1,1.2c-7.9,2.1-18.3,3.2-31.3,3.2s-5.9,0-10.6.1c-4.7,0-8.3.1-10.6.1.4,8.6,3.1,15.8,8.1,21.4,5.3,6,12.2,9.1,20.8,9.1s12.5-1.9,20.4-5.8l2.1,2.6-3.9,8.7c-8.7,5.5-18.2,8.2-28.4,8.2s-23.9-3.7-31.3-11.2c-7.4-7.5-11.1-18.1-11.1-31.9s4-27.6,11.9-33.7c11-8.3,21.4-12.5,31.2-12.5s18.9,3,24.8,9.1c6,6.2,8.9,15.2,8.9,26.9h0ZM2757.2,692.6c0-15.9-5-23.8-15-23.8s-15.9,7.9-15.9,23.6v1.9c3.5.5,9.6.8,18.4.8s8.7-.3,12.4-.8c0-.8,0-1.4,0-1.8Z"/>
    <path d="M2862.1,716.6c0,9.5-3.6,17.1-10.9,22.9s-16.7,8.7-28.4,8.7-17.2-1.8-26.7-5.3l-1-1.3c.5-5.4.9-9.6,1-12.6l.4-11.1.9-1h5.3l1.1,1c.2,6.6.5,10.5.8,11.6,5.1,6.4,11.7,9.6,20,9.6s9.5-1.3,12.6-3.8c3.2-2.5,4.7-5.9,4.7-10.1s-2.4-8.9-7.2-10.7c-2-.8-6.1-1.8-12.1-3-9.9-2.1-16.4-4.4-19.8-7-5.1-4-7.6-9.9-7.6-17.7s3.1-15.4,9.4-20.5c6.6-5.4,15.5-8.1,26.7-8.1s17.5,1.6,23.8,4.8l.8,1.4c-.7,2.7-1.2,9.4-1.5,20.4l-1,.9h-5.1l-1-.9c-.2-4.2-.7-7.7-1.2-10.3-3.8-4.7-9.2-7-16.4-7s-8.5,1.1-11.5,3.3c-3,2.2-4.5,5.2-4.5,8.8s2.5,8.1,7.6,9.8c2.3.7,6.7,1.7,13.2,3,10,1.9,16.6,4.2,19.9,6.7,5,3.9,7.5,9.8,7.5,17.7h0Z"/>
    <path d="M2969.8,676.3c4.5,0,8.8,1.1,12.9,3.3,4.1,2.2,7.4,5.4,9.8,9.4,2.4,4.1,3.6,8.4,3.6,13,0,7-2.5,13.1-7.6,18.2s-11.3,7.6-18.6,7.6-13.5-2.5-18.6-7.6c-5.1-5-7.6-11.1-7.6-18.2s1.2-9,3.6-13c2.4-4,5.6-7.2,9.8-9.4s8.4-3.3,12.9-3.3h0Z"/>
    <path d="M3230.1,743.9l-.9,1c-3.5-.3-9.6-.5-18.4-.5s-12.6.2-15.7.5l-1.2-1.7c.9-14.6,1.4-25.3,1.4-32v-8c0-8.6-.3-14.4-.8-17.4-.7-3.5-2.1-6.3-4.5-8.5-2.3-2.1-5.5-3.2-9.5-3.2s-8.2,1.2-11.2,3.7c-3,2.5-4.5,5.6-4.5,9.4v26.3l.4,13.9c.1,3.8.4,6.2,1,7.4.4.8,1.2,1.3,2.4,1.7,1.1.3,4,.7,8.7,1.2l1,.9v5.3l-1.1,1c-7.2-.3-14.5-.5-21.9-.5s-17.1.2-23.6.5l-1-1v-5.2l.9-1.1c3.8-.3,6.4-.7,7.8-1,1.1-.2,1.9-1.1,2.3-2.6.4-1.1.6-4.4.6-9.8l.2-28.5c0-6.6-.5-11.3-1.5-14.1-.8-2.2-2.4-4.1-4.7-5.5-2.1-1.3-4.8-2-8.2-2-5.4,0-9.6,1.8-12.8,5.3-1.5,1.7-2.4,3-2.6,4-.3,1-.4,3.2-.4,6.6v19.1c0,3.8.1,8.6.4,14.6.2,6.2.5,9.8.7,10.8.4,1.2,1.4,2.1,3,2.5s4.1.7,7.5.8l.9.9v5.4l-.9.9c-5.1-.3-12.6-.5-22.7-.5s-18.8.2-24.4.6l-.9-.9v-5.4l.9-.9c5.7-.2,9.3-.6,10.6-1.3,1.2-.5,1.9-1.9,2-4.2.4-7.6.6-15.8.6-24.6v-12.6c0-11.8-.4-18.5-1.3-20.3-.6-1.2-1.9-1.9-3.9-2.2-.7-.1-3.3-.3-7.8-.4l-.9-.9v-4.9l.9-1c10.7-1,22.1-3.4,33.9-7.3l2,1.2-.2,14,15.9-12.7c2.9-1.3,6.4-1.9,10.4-1.9,6.9,0,12.2,1.1,16,3.3,3.8,2.2,6.9,6.1,9.2,11.6l16.3-13c2.9-1.3,6.5-2,10.6-2,11.5,0,19.5,4.1,24,12.3,2,3.6,3,9.2,3,16.8s0,5.4,0,7v3.3c-.2,2.8-.3,4.7-.3,5.6v11.5c0,8.9.1,14.5.4,17,.3,2.4,1,4,2.1,4.6,1.1.7,4.1,1,9.1,1.2l.9,1v5.2h0Z"/>
    <path d="M3321.7,743.8l-1,1c-5-.3-10.8-.4-17.3-.4s-9.9.2-14.6.4l-.8-1,.8-11.8-17.4,13c-1.4,1-3.3,1.6-5.9,1.8-1,.1-2.2.2-3.6.2-6.6,0-11.7-2-15.3-5.9s-5.3-9.4-5.3-16.3,2.9-15.7,8.9-19.5c6.4-4.2,19.2-7.9,38.6-11.3,0-9.3-2.5-15.6-7.5-18.8-3-1.9-6.7-2.9-10.9-2.9s-8.3.9-11,2.8l-3.4,8.2-1.2.6-4.6-1.1-.6-1.2.4-10.4c9.9-7.2,17.2-11.2,22.2-12.2,2.1-.4,4.8-.6,8.1-.6,11.8,0,20.1,3,25.2,9.1,3.6,4.4,5.5,11.2,5.5,20.3s0,5.8-.3,10.8c-.3,8.2-.4,13.7-.4,16.5,0,8.9.1,14.5.4,17,.3,2.4,1,4,2.1,4.6s3.8,1,7.9,1.2l.9,1v4.9h0ZM3288.8,723.2v-21.7c-9.9,2.1-16.5,4.4-19.9,6.8s-5.1,6.2-5.1,11.2c0,8,3.6,12,10.6,12s10.8-2.8,14.4-8.3h0Z"/>
    <path d="M3436,744l-.9.9c-4-.2-8.9-.3-14.6-.3s-10.6.1-15.8.3c-3.3-6-11.4-16-24.3-29.9-6.8-7.3-11-11.7-12.9-13l.6,30.2c.1,2.3.8,3.7,2,4.2,1.4.7,4.9,1.2,10.6,1.3l1,.9v5.4l-.9.9c-5.7-.4-13.9-.6-24.5-.6s-18.8.2-24.4.6l-.9-.9v-5.4l.9-.9c5.7-.2,9.3-.6,10.6-1.3,1.2-.5,1.9-1.9,2-4.2.4-7.6.6-21,.6-40.1v-29.5c0-12.3-.2-22.3-.6-30-.1-2.2-.8-3.6-2-4.3-1.2-.7-4.7-1.1-10.4-1.3l-.9-1v-4.8l.9-1c11.5-1.2,23.1-3.7,34.6-7.3l1.9,1.1c0,1.6,0,4.5-.3,8.7-.6,14-.9,29.6-.9,46.6v28.8l8.9-7.1c3.9-3.1,9.3-8.3,16.3-15.6l9.3-9.7c1.7-1.8,3.1-3.4,4.1-4.8,5.1.2,9.2.3,12.4.3s7.6,0,10.8-.3l.9.9v5.3l-.9.9-6.5.3c-2.6.1-5.3,1.2-8.1,3.1-1.1.8-3.3,2.5-6.8,5.3l-7.5,6.1-2.7,2.5-7.6,6.7,19.2,22c12.2,14,19.5,21.6,21.9,22.7,1.2.6,2.6.9,3.9.9l.9,1v5.4h0Z"/>
    <path d="M3523.1,694.9c0,1,0,2.5,0,4.5l-1,1.2c-7.9,2.1-18.3,3.2-31.3,3.2s-5.9,0-10.6.1c-4.7,0-8.3.1-10.6.1.4,8.6,3.1,15.8,8.1,21.4,5.3,6,12.2,9.1,20.8,9.1s12.5-1.9,20.4-5.8l2.1,2.6-3.9,8.7c-8.7,5.5-18.2,8.2-28.4,8.2s-23.9-3.7-31.3-11.2c-7.4-7.5-11.1-18.1-11.1-31.9s4-27.6,11.9-33.7c11-8.3,21.4-12.5,31.2-12.5s18.9,3,24.8,9.1c6,6.2,8.9,15.2,8.9,26.9h0ZM3499.8,692.6c0-15.9-5-23.8-15-23.8s-15.9,7.9-15.9,23.6v1.9c3.5.5,9.6.8,18.4.8s8.7-.3,12.4-.8c0-.8,0-1.4,0-1.8Z"/>
    <path d="M3637.1,743.9l-.9.9c-8.9-.3-14.6-.4-16.9-.4s-4.9,0-8.8.2c-3.9.2-6.8.2-8.7.2l-.7-.7c.5-4.8.7-9.4.7-13.8-3.1,2.3-8.5,7.2-16.3,14.6-3.9,1.5-8,2.2-12.4,2.2-8.1,0-14.4-2.2-19.1-6.5-4.7-4.3-7-10.5-7-18.6s0-3.1.2-6.3c.1-3.2.2-6.3.2-9.3v-11.3c0-11.6-.4-18.4-1.3-20.3-.6-1.2-1.9-1.9-3.9-2.2-.7-.1-3.3-.3-7.9-.4l-.9-.9v-4.9l.9-1c11.4-1,22.9-3.4,34.6-7.3l2,1.2c-.8,9.8-1.2,18.8-1.2,27.1v17.2c0,8,.3,13.5.8,16.5.6,3.5,2,6.2,4.2,8s5.2,2.7,9,2.7,8.7-1.5,12.3-4.4c3.3-2.9,5.1-6.3,5.3-10,.1-2.9.2-4.7.2-5.4v-15.8c0-11.5-.4-18.3-1.3-20.3-.5-1.2-1.8-1.9-3.8-2.2-.7-.1-3.3-.3-7.9-.4l-1-.9v-4.9l1-1c11.3-1,22.9-3.4,34.6-7.3l1.9,1.2c-.8,8.8-1.2,17.8-1.2,27.1v27.7c0,12.4.4,19.4,1.1,21.1.4.8.9,1.3,1.8,1.6,1.4.4,4.5.8,9.3,1.1l1,.9v5.4h0Z"/>
    <path d="M3745.1,693.2c0,7.2-1.3,14.1-3.9,20.7-1.9,4.8-4.4,8.9-7.5,12.2-1.4,1.5-3.9,3.6-7.7,6.3-3.9,3.1-8.9,6.9-14.8,11.3-3.5,2.3-8,3.4-13.4,3.4s-10.4-.9-15.6-2.8v33.1c0,2.7.3,4.5,1,5.4.4.5,1.2.8,2.4,1.2.9.2,4.8.6,11.5,1.1l1,.9v5.5l-.9.9c-8.1-.5-17.2-.7-27.5-.7s-15,.2-22.6.7l-.9-.9v-5.3l.9-1c6-.2,9.5-.7,10.4-1.4.6-.5.9-1.1,1.1-1.7.2-1.1.5-4,.7-8.6.2-3.5.3-8,.4-13.5l.2-13.7v-51.2c0-.6-.2-4.9-.5-13-.2-3.8-.5-6.3-.9-7.4-.4-1.1-1.7-1.8-3.7-2.1-.7-.1-3.3-.3-7.9-.4l-.9-.9v-4.9l.9-1c11.4-1,22.9-3.4,34.6-7.3l2,1.2c0,2.5-.3,7.6-.8,15.2,4-3.3,9-7.4,15.1-12.2,2.9-2.2,7.4-3.3,13.5-3.3,14.8,0,24.9,5.6,30.3,16.8,2.4,5.1,3.7,11,3.7,17.5h0ZM3722.1,704c0-12.8-3.4-21.5-10.3-25.9-3.6-2.3-7.4-3.5-11.4-3.5-7.3,0-13.4,3-18.3,8.9v43.7c5.4,5.6,11.4,8.5,17.9,8.5,9.7,0,16.2-5,19.5-14.9,1.7-5,2.5-10.6,2.5-16.8h0Z"/>
  </g>
</svg>